<?xml version="1.0" standalone="no"?>
<!DOCTYPE svg PUBLIC "-//W3C//DTD SVG 20010904//EN"
 "http://www.w3.org/TR/2001/REC-SVG-20010904/DTD/svg10.dtd">
<svg version="1.0" xmlns="http://www.w3.org/2000/svg"
 width="2265.000000pt" height="2265.000000pt" viewBox="0 0 2265.000000 2265.000000"
 preserveAspectRatio="xMidYMid meet">
<metadata>
Created by potrace 1.11, written by Peter Selinger 2001-2013
</metadata>
<g transform="translate(0.000000,2265.000000) scale(0.100000,-0.100000)"
fill="#000000" stroke="none">
<path d="M0 11325 l0 -11325 11325 0 11325 0 0 11325 0 11325 -5662 0 -5663 0
2558 -2558 2557 -2557 0 -6210 0 -6210 -2553 -2553 c-1403 -1403 -2558 -2552
-2564 -2552 -7 0 -1162 1148 -2568 2551 l-2555 2552 0 6211 0 6211 2557 2557
2558 2558 -5658 0 -5657 0 0 -11325z"/>
<path d="M9294 19148 c-1110 -1338 -2063 -2486 -2118 -2553 -97 -118 -93 -115
168 145 146 146 266 260 266 255 0 -5 -142 -152 -315 -325 l-315 -315 2 -2606
3 -2606 4335 2301 4335 2301 3 306 2 306 -1962 2366 c-1080 1301 -2055 2476
-2166 2611 -112 135 -207 246 -211 246 -4 0 -916 -1094 -2027 -2432z"/>
<path d="M11308 8012 l-4328 -1566 0 -267 0 -268 1963 -2364 c1079 -1301 2055
-2478 2170 -2616 l207 -252 273 328 c2377 2861 3982 4798 3980 4803 -1 4 18
27 43 51 l44 43 0 1838 c0 1464 -3 1838 -12 1837 -7 -1 -1960 -706 -4340
-1567z m4262 -2205 c0 -1 -228 -229 -507 -507 l-508 -505 505 508 c469 471
510 511 510 504z"/>
</g>
</svg>
