<svg xmlns="http://www.w3.org/2000/svg" viewBox="0 0 450.75 996.8"><path d="M320.9,290.4l-34.25,34.25v460.4h0L477.75,976.2l16.55-16.5v-.05L320.9,750.8V290.4m382.2,0v460.5l-.25.3,34.5-34.5V239L554.8,56.45l-25,25L703.1,290.35Z" transform="translate(-286.6 -13.65)" fill="#95e8e8"/><polygon points="34.3 713.1 34.3 737.15 225.4 967.35 416.25 737.5 416.5 574.9 34.3 713.1" fill="#254fb9"/><path d="M529.75,81.5l25-25L512,13.65,286.65,239v85.65L348.8,262.5l-.05-.05-27.85,27.9L512,60.15,529.75,81.5m207.6,703.6V716.65l-34.5,34.5L512,981l-17.7-21.3-16.55,16.5L512,1010.45,737.35,785.1m-34.5-34,.25-.3-48.4,48.4,48.15-48.1Z" transform="translate(-286.6 -13.65)" fill="#5280dd"/><path d="M703.1,588.55V317.65L320.9,520.55v206.2Z" transform="translate(-286.6 -13.65)" fill="#729ef4"/><path d="M320.9,290.35,512,60.15l191.1,230.2v27.3L320.9,520.55Z" transform="translate(-286.6 -13.65)" fill="#254fb9"/></svg>